<?xml version="1.0" encoding="iso-8859-1"?>
<!-- Generator: Adobe Illustrator 19.0.0, SVG Export Plug-In . SVG Version: 6.00 Build 0)  -->
<svg version="1.1" id="Layer_1" xmlns="http://www.w3.org/2000/svg" xmlns:xlink="http://www.w3.org/1999/xlink" x="0px" y="0px"
	 viewBox="0 0 512.001 512.001" style="enable-background:new 0 0 512.001 512.001;" xml:space="preserve">
<path style="fill:#FFA81F;" d="M256.002,512.001c-39.111,0-73.372-43.571-82.665-56.484c-5.814,0.91-17.943,2.493-31.981,2.493
	c-30.116,0-52.449-7.061-66.374-20.988c-27.64-27.64-21.078-82.633-18.515-98.371C43.52,329.33,0,295.085,0,256.001
	c0-39.091,43.53-73.338,56.467-82.65c-2.56-15.726-9.129-70.727,18.515-98.37c13.926-13.926,36.257-20.987,66.373-20.987
	c14.036,0,26.167,1.583,31.983,2.493C182.63,43.573,216.89,0.001,256,0.001c39.11-0.001,73.37,43.571,82.662,56.485
	c5.816-0.911,17.945-2.495,31.985-2.495c30.114,0,52.445,7.061,66.373,20.988c27.641,27.642,21.075,82.639,18.513,98.371
	c12.94,9.315,56.467,43.56,56.467,82.65c0,39.091-43.53,73.338-56.467,82.65c2.564,15.737,9.127,70.729-18.513,98.369
	c-13.928,13.927-36.259,20.989-66.373,20.989c-0.002,0-0.002,0-0.004,0c-14.036,0-26.165-1.583-31.979-2.493
	C329.362,468.44,295.105,512.001,256.002,512.001z"/>
<path style="fill:#FF0536;" d="M269.551,362.747c-10.636,0-19.699-7.204-26.939-21.411l-3.133-6.151
	c-5.599-10.987-20.367-19.595-33.62-19.595c-1.454,0-2.869,0.108-4.209,0.32l-6.824,1.078c-3.499,0.554-6.806,0.836-9.824,0.836
	c-17.872,0-23.969-10.06-25.762-14.385c-2.984-7.207-3.417-18.918,11.464-33.8l4.881-4.881c9.885-9.884,12.987-29.481,6.642-41.935
	l-3.135-6.153c-6.816-13.379-7.632-24.475-2.42-32.979c4.045-6.603,11.184-10.389,19.584-10.389c6.086,0,12.764,1.895,20.412,5.792
	l6.151,3.134c4.205,2.142,9.429,3.275,15.108,3.275c10.431,0,20.711-3.8,26.828-9.916l4.881-4.883
	c8.816-8.815,17.136-13.1,25.441-13.1c6.454,0,12.296,2.679,16.452,7.544c5.685,6.658,7.522,16.645,5.456,29.683l-1.075,6.813
	c-2.188,13.813,6.818,31.49,19.273,37.836l6.153,3.137c20.883,10.64,22.212,23.519,21.146,30.249
	c-1.066,6.73-6.31,18.568-29.464,22.236l-6.818,1.081c-13.808,2.186-27.836,16.215-30.022,30.022l-1.082,6.82
	C290.852,359.85,275.818,362.746,269.551,362.747z"/>
<path style="opacity:0.15;enable-background:new    ;" d="M512,256.001c0-39.09-43.526-73.335-56.467-82.65
	c2.562-15.731,9.129-70.729-18.513-98.371c-13.928-13.927-36.259-20.988-66.373-20.988c-14.04,0-26.169,1.584-31.985,2.495
	C329.37,43.572,295.109,0.001,256,0.001v512h0.002c39.104,0,73.36-43.561,82.662-56.484c5.814,0.91,17.943,2.493,31.979,2.493
	c0.002,0,0.002,0,0.004,0c30.114,0,52.445-7.062,66.373-20.989c27.639-27.64,21.077-82.632,18.513-98.369
	C468.47,329.338,512,295.092,512,256.001z"/>
<g>
</g>
<g>
</g>
<g>
</g>
<g>
</g>
<g>
</g>
<g>
</g>
<g>
</g>
<g>
</g>
<g>
</g>
<g>
</g>
<g>
</g>
<g>
</g>
<g>
</g>
<g>
</g>
<g>
</g>
</svg>
